<svg width="129" height="128" viewBox="0 0 129 128" fill="none" xmlns="http://www.w3.org/2000/svg">
<rect x="0.613281" y="59.6212" width="126.905" height="2.45227" fill="#A9D9EF"/>
<rect x="1.22607" y="54.7167" width="125.679" height="2.45227" fill="#A9D9EF"/>
<rect x="1.83936" y="49.8121" width="124.453" height="2.45227" fill="#A9D9EF"/>
<rect x="3.06543" y="44.9075" width="122" height="2.45227" fill="#A9D9EF"/>
<rect x="4.90479" y="40.0029" width="118.322" height="2.45227" fill="#A9D9EF"/>
<rect x="7.35693" y="35.0985" width="113.418" height="2.45227" fill="#A9D9EF"/>
<rect x="9.80908" y="30.194" width="108.513" height="2.45227" fill="#A9D9EF"/>
<rect x="12.8745" y="25.2894" width="101.769" height="2.45227" fill="#A9D9EF"/>
<rect x="16.5527" y="20.3849" width="94.4124" height="2.45227" fill="#A9D9EF"/>
<rect x="21.4575" y="15.4802" width="84.6033" height="2.45227" fill="#A9D9EF"/>
<rect x="28.2012" y="10.5757" width="71.7289" height="2.45227" fill="#A9D9EF"/>
<rect x="36.1709" y="5.67126" width="55.7892" height="2.45227" fill="#A9D9EF"/>
<rect x="50.2715" y="0.766724" width="28.2011" height="2.45227" fill="#A9D9EF"/>
<rect y="64.5258" width="128.131" height="2.45227" fill="#A9D9EF"/>
<rect width="126.905" height="1.8392" transform="matrix(1 0 0 -1 0.613281 71.2694)" fill="#A9D9EF"/>
<rect width="125.679" height="2.45227" transform="matrix(1 0 0 -1 1.22607 76.174)" fill="#A9D9EF"/>
<rect width="124.453" height="1.8392" transform="matrix(1 0 0 -1 1.83936 80.4655)" fill="#A9D9EF"/>
<rect width="122" height="2.45227" transform="matrix(1 0 0 -1 3.06543 85.37)" fill="#A9D9EF"/>
<rect width="118.322" height="2.45227" transform="matrix(1 0 0 -1 4.90479 90.2745)" fill="#A9D9EF"/>
<rect width="113.418" height="2.45227" transform="matrix(1 0 0 -1 7.35693 94.566)" fill="#A9D9EF"/>
<rect width="109.126" height="2.45227" transform="matrix(1 0 0 -1 9.80908 99.4706)" fill="#A9D9EF"/>
<rect width="101.156" height="2.45227" transform="matrix(1 0 0 -1 12.8745 103.762)" fill="#A9D9EF"/>
<rect width="94.4124" height="2.45227" transform="matrix(1 0 0 -1 16.5527 108.667)" fill="#A9D9EF"/>
<rect width="84.6033" height="1.8392" transform="matrix(1 0 0 -1 21.4575 112.958)" fill="#A9D9EF"/>
<rect width="71.7289" height="1.8392" transform="matrix(1 0 0 -1 28.2012 117.25)" fill="#A9D9EF"/>
<rect width="55.7892" height="1.8392" transform="matrix(1 0 0 -1 36.1709 122.154)" fill="#A9D9EF"/>
<rect width="28.2011" height="2.45227" transform="matrix(1 0 0 -1 50.2715 127.059)" fill="#A9D9EF"/>
<rect width="128.131" height="2.45227" transform="matrix(1 0 0 -1 0 66.978)" fill="#A9D9EF"/>
</svg>
